<svg xmlns="http://www.w3.org/2000/svg" version="1.1" xmlns:xlink="http://www.w3.org/1999/xlink" xmlns:svgjs="http://svgjs.dev/svgjs" width="1500" height="1500" viewBox="0 0 1500 1500"><rect width="1500" height="1500" fill="#ffffff"></rect><g transform="matrix(0.6666666666666666,0,0,0.6666666666666666,249.39477927619015,519.9211683376134)"><svg viewBox="0 0 396 196" data-background-color="#ffffff" preserveAspectRatio="xMidYMid meet" height="742" width="1500" xmlns="http://www.w3.org/2000/svg" xmlns:xlink="http://www.w3.org/1999/xlink"><g id="tight-bounds" transform="matrix(1,0,0,1,0.23997175969600448,-0.1648247763652364)"><svg viewBox="0 0 395.52 196.32964989511657" height="196.32964989511657" width="395.52"><g><svg viewBox="0 0 395.52 196.32964989511657" height="196.32964989511657" width="395.52"><g transform="matrix(1,0,0,1,0,130.45375459156838)"><svg viewBox="0 0 395.52 65.87589530354818" height="65.87589530354818" width="395.52"><g id="textblocktransform"><svg viewBox="0 0 395.52 65.87589530354818" height="65.87589530354818" width="395.52" id="textblock"><g><svg viewBox="0 0 395.52 50.12594602951495" height="50.12594602951495" width="395.52"><g transform="matrix(1,0,0,1,0,0)"><svg width="395.52" viewBox="1.8116266498092906 -32.630469999999995 350.76105335019065 44.45289375" height="50.12594602951495" data-palette-color="#0085ff"><path d="M19.17 11.7v0c-2.959 0.351-5.665-0.047-8.117-1.193-2.445-1.147-4.459-2.956-6.041-5.427-1.582-2.471-2.587-5.514-3.015-9.129v0c-0.413-3.489-0.137-6.653 0.829-9.494 0.973-2.834 2.549-5.149 4.726-6.944 2.184-1.796 4.855-2.881 8.013-3.255v0c1.629-0.193 3.13-0.213 4.504-0.061 1.373 0.146 2.679 0.428 3.916 0.845v0l-0.956 4.081c-1.064-0.371-2.143-0.639-3.237-0.804-1.095-0.172-2.36-0.174-3.797-0.004v0c-2.079 0.246-3.878 1.007-5.399 2.281-1.515 1.267-2.626 2.966-3.333 5.098-0.707 2.131-0.891 4.63-0.552 7.497v0c0.324 2.734 1.071 5.073 2.241 7.015 1.177 1.942 2.653 3.385 4.43 4.329 1.784 0.95 3.732 1.3 5.844 1.05v0c1.596-0.189 2.959-0.549 4.091-1.079 1.126-0.529 2.204-1.171 3.236-1.924v0l1.878 3.694c-1.128 0.792-2.44 1.501-3.937 2.128-1.497 0.62-3.272 1.052-5.324 1.296zM38.678 8.985l-4.398 0.444-2.568-25.451 4.259-0.43 0.558 5.532c0.315-1.124 0.784-2.186 1.407-3.187 0.623-1.001 1.442-1.841 2.459-2.52 1.024-0.68 2.252-1.092 3.685-1.236v0c0.491-0.05 0.984-0.076 1.48-0.079 0.496-0.003 0.911 0.029 1.245 0.095v0l-0.863 4.691c-0.644-0.203-1.39-0.262-2.239-0.176v0c-1.207 0.122-2.323 0.583-3.348 1.383-1.026 0.794-1.818 1.942-2.376 3.446-0.558 1.51-0.725 3.373-0.502 5.588v0zM61.934 7.48v0c-2.126 0.178-4.101-0.198-5.925-1.128-1.825-0.937-3.335-2.349-4.53-4.236-1.196-1.893-1.906-4.179-2.131-6.856v0c-0.214-2.551 0.109-4.883 0.968-6.995 0.86-2.113 2.146-3.843 3.859-5.191 1.714-1.341 3.75-2.111 6.108-2.309v0c1.468-0.123 2.821 0.017 4.06 0.422 1.232 0.405 2.321 0.946 3.267 1.622v0l-0.172-2.053 4.026-0.338 1.621 19.313c0.104 1.242 0.475 2.027 1.111 2.355 0.636 0.321 1.312 0.452 2.029 0.391v0l-0.648 3.517c-3.136 0.263-5.136-0.853-6.001-3.35v0c-0.67 1.107-1.613 2.149-2.828 3.128-1.216 0.972-2.821 1.541-4.814 1.708zM62.581 3.472v0c1.242-0.104 2.393-0.505 3.451-1.203 1.065-0.698 1.935-1.534 2.61-2.507v0l-1.149-13.682c-0.936-0.55-1.951-0.967-3.045-1.249-1.095-0.289-2.23-0.385-3.406-0.286v0c-1.568 0.132-2.916 0.65-4.044 1.553-1.122 0.897-1.969 2.085-2.541 3.565-0.565 1.479-0.768 3.169-0.608 5.069v0c0.153 1.827 0.632 3.422 1.436 4.787 0.81 1.364 1.854 2.397 3.13 3.099 1.276 0.696 2.665 0.981 4.166 0.854zM91.992 5.266v0c-2.422 0.157-4.577-0.271-6.467-1.284-1.889-1.006-3.391-2.486-4.506-4.438-1.115-1.952-1.758-4.235-1.928-6.85v0c-0.159-2.455 0.194-4.729 1.061-6.823 0.873-2.094 2.202-3.801 3.987-5.118 1.786-1.312 3.939-2.049 6.46-2.213v0c1.444-0.094 2.723-0.046 3.837 0.142 1.108 0.189 2.187 0.496 3.237 0.922v0l-1.085 3.818c-0.948-0.399-1.844-0.679-2.69-0.837-0.852-0.159-1.784-0.205-2.795-0.14v0c-2.295 0.149-4.164 1.102-5.607 2.859-1.45 1.751-2.08 4.083-1.891 6.997v0c0.115 1.77 0.545 3.352 1.29 4.747 0.752 1.401 1.735 2.49 2.948 3.266 1.219 0.769 2.614 1.103 4.183 1.001v0c1.244-0.081 2.3-0.286 3.167-0.616 0.867-0.337 1.789-0.801 2.766-1.392v0l1.619 3.643c-0.975 0.624-2.084 1.141-3.327 1.548-1.236 0.408-2.656 0.663-4.259 0.768zM125.169 0.5l-2.905 3.093-13.878-12.98 0.63 13.125-4.415 0.212-1.745-36.369 4.415-0.211 0.998 20.786 11.054-11.023 2.682 2.685-9.449 9.223zM149.328 2.28l-4.669 0.117-0.87-34.429 4.669-0.117zM161.91 2.133l-4.42 0.043-0.247-25.579 4.28-0.041 0.041 4.279c0.9-1.389 2.059-2.557 3.476-3.503 1.418-0.947 3.113-1.43 5.087-1.449v0c2.887-0.028 5.051 0.818 6.494 2.537 1.443 1.726 2.179 4.016 2.207 6.869v0l0.161 16.679-4.43 0.043-0.156-16.189c-0.018-1.833-0.469-3.302-1.353-4.407-0.877-1.112-2.086-1.66-3.626-1.646v0c-1.507 0.015-2.928 0.562-4.264 1.642-1.336 1.08-2.474 2.347-3.414 3.803v0zM195.298 2.73v0c-2.46-0.025-4.395-0.854-5.806-2.488-1.41-1.641-2.1-3.971-2.07-6.991v0l0.12-11.999-4.43-0.045 0.039-3.839 4.529 0.045 1.011-8.06 3.4 0.034-0.081 8.069 7.08 0.071-0.039 3.84-7.079-0.071-0.124 12.35c-0.019 1.9 0.368 3.231 1.16 3.991 0.799 0.761 1.755 1.148 2.869 1.159v0c0.82 0.008 1.601-0.114 2.344-0.366 0.743-0.253 1.426-0.556 2.049-0.91v0l1.194 3.552c-0.657 0.387-1.548 0.761-2.671 1.123-1.117 0.369-2.282 0.547-3.496 0.535zM214.918 3.133v0c-3.672-0.09-6.552-1.335-8.64-3.734-2.095-2.399-3.09-5.711-2.987-9.937v0c0.063-2.559 0.606-4.837 1.629-6.832 1.016-1.989 2.405-3.545 4.167-4.669 1.768-1.117 3.802-1.647 6.101-1.59v0c2.459 0.061 4.486 0.641 6.079 1.74 1.6 1.106 2.787 2.573 3.562 4.399 0.775 1.826 1.136 3.819 1.083 5.979v0c-0.028 1.146-0.106 2.261-0.232 3.345v0l-17.905-0.441c0.234 2.4 1.025 4.29 2.371 5.67 1.347 1.374 3.15 2.088 5.409 2.144v0c1.473 0.036 2.806-0.084 4-0.361 1.187-0.284 2.327-0.66 3.419-1.127v0l0.936 3.815c-1.193 0.497-2.53 0.898-4.01 1.201-1.488 0.31-3.149 0.443-4.982 0.398zM207.814-12.197v0l14.015 0.345c0.061-2.493-0.514-4.427-1.727-5.804-1.213-1.377-2.916-2.092-5.109-2.146v0c-1.906-0.047-3.499 0.581-4.778 1.882-1.279 1.296-2.08 3.203-2.401 5.723zM235.657 3.229l-4.416-0.182 1.05-25.558 4.276 0.175-0.228 5.556c0.471-1.068 1.085-2.054 1.843-2.957 0.758-0.903 1.688-1.619 2.79-2.147 1.109-0.528 2.383-0.763 3.822-0.704v0c0.493 0.02 0.985 0.064 1.476 0.13 0.491 0.067 0.898 0.157 1.22 0.271v0l-1.517 4.521c-0.609-0.292-1.339-0.455-2.191-0.49v0c-1.212-0.05-2.382 0.249-3.51 0.897-1.127 0.641-2.073 1.666-2.839 3.076-0.765 1.416-1.194 3.237-1.285 5.462v0zM262.058 4.612l-4.622-0.271-8.834-24.96 4.132-1.441 7.452 21.533 9.928-20.514 3.685 1.899zM281.044 5.833l-4.409-0.311 1.801-25.517 4.409 0.311zM280.949-24.208v0c-0.851-0.06-1.557-0.424-2.119-1.092-0.562-0.661-0.813-1.401-0.755-2.219v0c0.067-0.951 0.4-1.686 0.997-2.205 0.591-0.513 1.362-0.736 2.313-0.669v0c0.851 0.06 1.558 0.414 2.121 1.062 0.562 0.648 0.814 1.397 0.753 2.249v0c-0.065 0.918-0.397 1.643-0.995 2.175-0.592 0.533-1.364 0.766-2.315 0.699zM298.848 7.913v0c-3.66-0.312-6.46-1.728-8.399-4.249-1.946-2.521-2.74-5.887-2.381-10.098v0c0.217-2.551 0.897-4.791 2.038-6.721 1.134-1.924 2.614-3.394 4.44-4.409 1.832-1.008 3.894-1.414 6.186-1.219v0c2.451 0.209 4.439 0.91 5.963 2.104 1.53 1.201 2.627 2.736 3.291 4.606 0.664 1.87 0.904 3.881 0.72 6.033v0c-0.097 1.143-0.242 2.251-0.434 3.325v0l-17.845-1.521c0.089 2.41 0.764 4.344 2.024 5.803 1.261 1.452 3.018 2.275 5.27 2.466v0c1.468 0.125 2.806 0.085 4.014-0.119 1.202-0.212 2.363-0.518 3.481-0.918v0l0.704 3.864c-1.22 0.425-2.579 0.744-4.076 0.957-1.504 0.22-3.17 0.252-4.996 0.096zM292.682-7.817v0l13.969 1.19c0.212-2.484-0.246-4.45-1.374-5.898-1.128-1.448-2.784-2.265-4.97-2.451v0c-1.9-0.162-3.527 0.368-4.883 1.591-1.355 1.216-2.269 3.072-2.742 5.568zM325.206 9.951l-4.841-0.532-5.356-25.136 4.212-0.975 4.287 21.406 8.011-17.972 4.742 0.521 3.777 19.268 8.774-19.971 3.761 1.852-10.737 23.367-4.841-0.532-3.795-19.572z" opacity="1" transform="matrix(1,0,0,1,0,0)" fill="#0085ff" class="wordmark-text-0" data-fill-palette-color="primary" id="text-0"></path></svg></g></svg></g><g transform="matrix(1,0,0,1,118.31980799999998,54.36574152490913)"><svg viewBox="0 0 158.88038400000002 11.51015377863904" height="11.51015377863904" width="158.88038400000002"><g transform="matrix(1,0,0,1,0,0)"><svg width="158.88038400000002" viewBox="4.5 -37 670.78 48.6" height="11.51015377863904" data-palette-color="#0085ff"><path d="M25.5 0L4.5 0 4.5-35 25.5-35 25.5-30.9 9.25-30.9 9.25-20.25 23.25-20.25 23.25-16.25 9.25-16.25 9.25-4.1 25.5-4.1 25.5 0ZM38.65 0.6L38.65 0.6Q36.35 0.6 34.5-0.28 32.65-1.15 31.57-3.1 30.5-5.05 30.5-8.15L30.5-8.15 30.5-37 35-37 35-8.6Q35-5.9 36.12-4.6 37.25-3.3 39.25-3.3L39.25-3.3Q40.2-3.3 41.12-3.53 42.05-3.75 42.7-4.05L42.7-4.05 43.8-0.4Q42.9 0 41.57 0.3 40.25 0.6 38.65 0.6ZM57.7 0.6L57.7 0.6Q52.09 0.6 48.82-2.98 45.55-6.55 45.55-13L45.55-13Q45.55-16.9 47.02-19.98 48.5-23.05 51.15-24.83 53.8-26.6 57.3-26.6L57.3-26.6Q61.05-26.6 63.52-24.98 66-23.35 67.25-20.6 68.5-17.85 68.5-14.55L68.5-14.55Q68.5-12.8 68.34-11.15L68.34-11.15 50.15-11.15Q50.59-7.5 52.7-5.45 54.8-3.4 58.25-3.4L58.25-3.4Q60.5-3.4 62.3-3.88 64.09-4.35 65.75-5.1L65.75-5.1 66.8-1.25Q65-0.45 62.75 0.08 60.5 0.6 57.7 0.6ZM50.09-14.8L50.09-14.8 64.34-14.8Q64.34-18.6 62.45-20.65 60.55-22.7 57.2-22.7L57.2-22.7Q54.3-22.7 52.4-20.68 50.5-18.65 50.09-14.8ZM86.14 0L81.44 0 70.99-24.8 75.09-26.5 83.94-5.1 92.79-26.5 96.64-24.8 86.14 0ZM110.09 0.6L110.09 0.6Q106.84 0.6 104.19-1.05 101.54-2.7 99.97-5.73 98.39-8.75 98.39-12.85L98.39-12.85Q98.39-16.75 99.97-19.85 101.54-22.95 104.32-24.78 107.09-26.6 110.69-26.6L110.69-26.6Q112.94-26.6 114.77-25.83 116.59-25.05 117.94-23.9L117.94-23.9 117.94-26 122.04-26 122.04-6.3Q122.04-4.4 122.97-3.83 123.89-3.25 124.99-3.25L124.99-3.25 124.04 0.25Q119.24 0.25 118.24-3.65L118.24-3.65Q117.09-2.05 115.12-0.73 113.14 0.6 110.09 0.6ZM111.09-3.4L111.09-3.4Q112.99-3.4 114.69-4.33 116.39-5.25 117.54-6.65L117.54-6.65 117.54-20.6Q116.19-21.55 114.57-22.13 112.94-22.7 111.14-22.7L111.14-22.7Q108.74-22.7 106.92-21.48 105.09-20.25 104.04-18.07 102.99-15.9 102.99-13L102.99-13Q102.99-10.2 104.04-8.03 105.09-5.85 106.94-4.63 108.79-3.4 111.09-3.4ZM140.09 0.6L140.09 0.6Q136.34 0.6 134.16-1.88 131.99-4.35 131.99-8.95L131.99-8.95 131.99-21.15 127.49-21.15 127.49-25.05 132.09-25.05 133.04-33.25 136.49-33.25 136.49-25.05 143.69-25.05 143.69-21.15 136.49-21.15 136.49-8.6Q136.49-5.7 137.71-4.55 138.94-3.4 140.64-3.4L140.64-3.4Q141.89-3.4 143.01-3.8 144.14-4.2 145.09-4.75L145.09-4.75 146.34-1.15Q145.34-0.55 143.64 0.03 141.94 0.6 140.09 0.6ZM160.24 0.6L160.24 0.6Q154.64 0.6 151.36-2.98 148.09-6.55 148.09-13L148.09-13Q148.09-16.9 149.56-19.98 151.03-23.05 153.69-24.83 156.34-26.6 159.84-26.6L159.84-26.6Q163.59-26.6 166.06-24.98 168.54-23.35 169.79-20.6 171.04-17.85 171.04-14.55L171.04-14.55Q171.04-12.8 170.89-11.15L170.89-11.15 152.69-11.15Q153.14-7.5 155.24-5.45 157.34-3.4 160.78-3.4L160.78-3.4Q163.03-3.4 164.84-3.88 166.64-4.35 168.29-5.1L168.29-5.1 169.34-1.25Q167.54-0.45 165.29 0.08 163.03 0.6 160.24 0.6ZM152.64-14.8L152.64-14.8 166.89-14.8Q166.89-18.6 164.99-20.65 163.09-22.7 159.74-22.7L159.74-22.7Q156.84-22.7 154.94-20.68 153.03-18.65 152.64-14.8ZM192.68 11.6L192.68 11.6Q191.18 11.6 190.06 11.3 188.93 11 188.28 10.6L188.28 10.6 189.28 6.85Q189.88 7.2 190.78 7.45 191.68 7.7 192.78 7.7L192.78 7.7Q194.88 7.7 196.53 6.35 198.18 5 199.68 1.05L199.68 1.05 200.83-1.95 198.43-1.95 188.28-24.8 192.28-26.6 201.98-4.95 209.53-26.4 213.68-24.8 204.13 1.3Q202.68 5.3 200.98 7.55 199.28 9.8 197.23 10.7 195.18 11.6 192.68 11.6ZM228.13 0.6L228.13 0.6Q224.43 0.6 221.48-1.13 218.53-2.85 216.85-5.93 215.18-9 215.18-13L215.18-13Q215.18-17.2 216.88-20.25 218.58-23.3 221.53-24.95 224.48-26.6 228.13-26.6L228.13-26.6Q231.78-26.6 234.7-24.95 237.63-23.3 239.35-20.28 241.08-17.25 241.08-13.1L241.08-13.1Q241.08-8.95 239.38-5.88 237.68-2.8 234.75-1.1 231.83 0.6 228.13 0.6ZM228.13-3.4L228.13-3.4Q232.08-3.4 234.28-6.08 236.48-8.75 236.48-13L236.48-13Q236.48-15.6 235.38-17.78 234.28-19.95 232.4-21.28 230.53-22.6 228.13-22.6L228.13-22.6Q224.18-22.6 221.98-20 219.78-17.4 219.78-13.1L219.78-13.1Q219.78-10.5 220.88-8.28 221.98-6.05 223.85-4.73 225.73-3.4 228.13-3.4ZM255.58 0.6L255.58 0.6Q253.33 0.6 251.33-0.35 249.33-1.3 248.08-3.43 246.83-5.55 246.83-9.1L246.83-9.1 246.83-26 251.33-26 251.33-9.7Q251.33-6.65 252.63-5.03 253.93-3.4 256.43-3.4L256.43-3.4Q258.48-3.4 260.4-4.23 262.33-5.05 263.83-6.45L263.83-6.45 263.83-26 268.33-26 268.33-6.75Q268.33-4.6 269.25-3.93 270.18-3.25 271.28-3.25L271.28-3.25 270.33 0.25Q265.68 0.25 264.58-3.45L264.58-3.45Q262.83-1.65 260.53-0.53 258.23 0.6 255.58 0.6ZM281.77 0L277.27 0 277.27-26 281.62-26 281.62-20.35Q282.27-22 283.37-23.43 284.47-24.85 286.12-25.73 287.77-26.6 289.97-26.6L289.97-26.6Q290.72-26.6 291.47-26.53 292.22-26.45 292.72-26.3L292.72-26.3 291.37-21.65Q290.42-22.05 289.12-22.05L289.12-22.05Q287.27-22.05 285.6-21 283.92-19.95 282.85-17.75 281.77-15.55 281.77-12.15L281.77-12.15 281.77 0ZM317.47 0L312.72 0 312.72-35 317.47-35 317.47 0ZM330.47 0L325.97 0 325.97-26 330.32-26 330.32-21.65Q331.72-23.75 333.89-25.18 336.07-26.6 339.07-26.6L339.07-26.6Q343.47-26.6 345.64-23.95 347.82-21.3 347.82-16.95L347.82-16.95 347.82 0 343.32 0 343.32-16.45Q343.32-19.25 341.99-20.95 340.67-22.65 338.32-22.65L338.32-22.65Q336.02-22.65 333.97-21.03 331.92-19.4 330.47-17.2L330.47-17.2 330.47 0ZM364.66 0.6L364.66 0.6Q360.91 0.6 358.74-1.88 356.56-4.35 356.56-8.95L356.56-8.95 356.56-21.15 352.06-21.15 352.06-25.05 356.66-25.05 357.61-33.25 361.06-33.25 361.06-25.05 368.26-25.05 368.26-21.15 361.06-21.15 361.06-8.6Q361.06-5.7 362.29-4.55 363.51-3.4 365.21-3.4L365.21-3.4Q366.46-3.4 367.59-3.8 368.71-4.2 369.66-4.75L369.66-4.75 370.91-1.15Q369.91-0.55 368.21 0.03 366.51 0.6 364.66 0.6ZM384.81 0.6L384.81 0.6Q379.21 0.6 375.94-2.98 372.66-6.55 372.66-13L372.66-13Q372.66-16.9 374.14-19.98 375.61-23.05 378.26-24.83 380.91-26.6 384.41-26.6L384.41-26.6Q388.16-26.6 390.64-24.98 393.11-23.35 394.36-20.6 395.61-17.85 395.61-14.55L395.61-14.55Q395.61-12.8 395.46-11.15L395.46-11.15 377.26-11.15Q377.71-7.5 379.81-5.45 381.91-3.4 385.36-3.4L385.36-3.4Q387.61-3.4 389.41-3.88 391.21-4.35 392.86-5.1L392.86-5.1 393.91-1.25Q392.11-0.45 389.86 0.08 387.61 0.6 384.81 0.6ZM377.21-14.8L377.21-14.8 391.46-14.8Q391.46-18.6 389.56-20.65 387.66-22.7 384.31-22.7L384.31-22.7Q381.41-22.7 379.51-20.68 377.61-18.65 377.21-14.8ZM406.11 0L401.61 0 401.61-26 405.96-26 405.96-20.35Q406.61-22 407.71-23.43 408.81-24.85 410.46-25.73 412.11-26.6 414.31-26.6L414.31-26.6Q415.06-26.6 415.81-26.53 416.56-26.45 417.06-26.3L417.06-26.3 415.71-21.65Q414.76-22.05 413.46-22.05L413.46-22.05Q411.61-22.05 409.93-21 408.26-19.95 407.18-17.75 406.11-15.55 406.11-12.15L406.11-12.15 406.11 0ZM433.21 0L428.51 0 418.06-24.8 422.16-26.5 431.01-5.1 439.86-26.5 443.71-24.8 433.21 0ZM452.7 0L448.2 0 448.2-26 452.7-26 452.7 0ZM450.45-30.45L450.45-30.45Q449.15-30.45 448.23-31.4 447.3-32.35 447.3-33.6L447.3-33.6Q447.3-35.05 448.15-35.9 449-36.75 450.45-36.75L450.45-36.75Q451.75-36.75 452.68-35.83 453.6-34.9 453.6-33.6L453.6-33.6Q453.6-32.2 452.75-31.33 451.9-30.45 450.45-30.45ZM471.1 0.6L471.1 0.6Q465.5 0.6 462.23-2.98 458.95-6.55 458.95-13L458.95-13Q458.95-16.9 460.43-19.98 461.9-23.05 464.55-24.83 467.2-26.6 470.7-26.6L470.7-26.6Q474.45-26.6 476.93-24.98 479.4-23.35 480.65-20.6 481.9-17.85 481.9-14.55L481.9-14.55Q481.9-12.8 481.75-11.15L481.75-11.15 463.55-11.15Q464-7.5 466.1-5.45 468.2-3.4 471.65-3.4L471.65-3.4Q473.9-3.4 475.7-3.88 477.5-4.35 479.15-5.1L479.15-5.1 480.2-1.25Q478.4-0.45 476.15 0.08 473.9 0.6 471.1 0.6ZM463.5-14.8L463.5-14.8 477.75-14.8Q477.75-18.6 475.85-20.65 473.95-22.7 470.6-22.7L470.6-22.7Q467.7-22.7 465.8-20.68 463.9-18.65 463.5-14.8ZM498.3 0L493.35 0 485.15-24.8 489.3-26.25 496-5.1 502.1-24.15 506.95-24.15 512.9-5.1 519.55-26.25 523.55-24.8 515.3 0 510.35 0 504.35-19.35 498.3 0ZM556.24 0.6L556.24 0.6Q552.19 0.6 549.04-1.5 545.89-3.6 544.09-7.48 542.29-11.35 542.29-16.6L542.29-16.6Q542.29-22.2 544.19-26.48 546.09-30.75 549.67-33.18 553.24-35.6 558.29-35.6L558.29-35.6Q561.54-35.6 564.09-34.8 566.64-34 568.89-32.75L568.89-32.75 567.14-28.8Q565.04-29.95 562.87-30.7 560.69-31.45 558.04-31.45L558.04-31.45Q554.89-31.45 552.44-29.78 549.99-28.1 548.57-24.85 547.14-21.6 547.14-16.9L547.14-16.9Q547.14-12.7 548.44-9.73 549.74-6.75 552.04-5.15 554.34-3.55 557.34-3.55L557.34-3.55Q560.14-3.55 562.32-4.73 564.49-5.9 565.74-7.15L565.74-7.15 565.74-14.8 558.49-14.8 558.49-18.55 570.24-18.55 570.24 0 566.04 0 566.04-3.5Q564.29-1.95 561.79-0.68 559.29 0.6 556.24 0.6ZM587.44 0.6L587.44 0.6Q584.19 0.6 581.54-1.05 578.89-2.7 577.31-5.73 575.74-8.75 575.74-12.85L575.74-12.85Q575.74-16.75 577.31-19.85 578.89-22.95 581.66-24.78 584.44-26.6 588.04-26.6L588.04-26.6Q590.29-26.6 592.11-25.83 593.94-25.05 595.29-23.9L595.29-23.9 595.29-26 599.39-26 599.39-6.3Q599.39-4.4 600.31-3.83 601.24-3.25 602.34-3.25L602.34-3.25 601.39 0.25Q596.59 0.25 595.59-3.65L595.59-3.65Q594.44-2.05 592.46-0.73 590.49 0.6 587.44 0.6ZM588.44-3.4L588.44-3.4Q590.34-3.4 592.04-4.33 593.74-5.25 594.89-6.65L594.89-6.65 594.89-20.6Q593.54-21.55 591.91-22.13 590.29-22.7 588.49-22.7L588.49-22.7Q586.09-22.7 584.26-21.48 582.44-20.25 581.39-18.07 580.34-15.9 580.34-13L580.34-13Q580.34-10.2 581.39-8.03 582.44-5.85 584.29-4.63 586.14-3.4 588.44-3.4ZM612.84 0L608.34 0 608.34-26 612.69-26 612.69-21.65Q614.09-23.75 616.24-25.18 618.39-26.6 621.14-26.6L621.14-26.6Q624.24-26.6 626.21-25.1 628.19-23.6 628.99-21.1L628.99-21.1Q630.54-23.4 632.66-25 634.79-26.6 637.94-26.6L637.94-26.6Q642.19-26.6 644.26-23.93 646.34-21.25 646.34-16.95L646.34-16.95 646.34 0 641.84 0 641.84-16.6Q641.84-19.3 640.59-20.98 639.34-22.65 637.14-22.65L637.14-22.65Q634.89-22.65 632.96-20.98 631.04-19.3 629.59-17.05L629.59-17.05 629.59 0 625.09 0 625.09-16.6Q625.09-19.3 623.84-20.98 622.59-22.65 620.39-22.65L620.39-22.65Q618.19-22.65 616.24-21.03 614.29-19.4 612.84-17.2L612.84-17.2 612.84 0ZM664.48 0.6L664.48 0.6Q658.88 0.6 655.61-2.98 652.33-6.55 652.33-13L652.33-13Q652.33-16.9 653.81-19.98 655.28-23.05 657.93-24.83 660.58-26.6 664.08-26.6L664.08-26.6Q667.83-26.6 670.31-24.98 672.78-23.35 674.03-20.6 675.28-17.85 675.28-14.55L675.28-14.55Q675.28-12.8 675.13-11.15L675.13-11.15 656.93-11.15Q657.38-7.5 659.48-5.45 661.58-3.4 665.03-3.4L665.03-3.4Q667.28-3.4 669.08-3.88 670.88-4.35 672.53-5.1L672.53-5.1 673.58-1.25Q671.78-0.45 669.53 0.08 667.28 0.6 664.48 0.6ZM656.88-14.8L656.88-14.8 671.13-14.8Q671.13-18.6 669.23-20.65 667.33-22.7 663.98-22.7L663.98-22.7Q661.08-22.7 659.18-20.68 657.28-18.65 656.88-14.8Z" opacity="1" transform="matrix(1,0,0,1,0,0)" fill="#0085ff" class="slogan-text-1" data-fill-palette-color="secondary" id="text-1"></path></svg></g></svg></g></svg></g></svg></g><g transform="matrix(1,0,0,1,147.73594666878967,0)"><svg viewBox="0 0 100.04810666242062 115.11417448923221" height="115.11417448923221" width="100.04810666242062"><g><svg xmlns="http://www.w3.org/2000/svg" data-name="Layer 1" viewBox="7.5 1.0999999999999996 85 97.80000000000001" x="0" y="0" height="115.11417448923221" width="100.04810666242062" class="icon-icon-0" data-fill-palette-color="accent" id="icon-0"><path d="M83 27.1H73.91V6.6A3.5 3.5 0 1 0 66.91 6.6V53H33.09V6.6A3.5 3.5 0 0 0 26.09 6.6V27.1H17A9.51 9.51 0 0 0 7.5 36.6V73.91A9.51 9.51 0 0 0 17 83.41H37.43V91.9H31.51A3.5 3.5 0 1 0 31.51 98.9H68.51A3.5 3.5 0 0 0 68.51 91.9H62.57V83.41H83A9.51 9.51 0 0 0 92.5 73.91V36.6A9.51 9.51 0 0 0 83 27.1M17 34.1H26.13V53H22.2A3.5 3.5 0 0 0 22.2 60H77.8A3.5 3.5 0 0 0 77.8 53H73.91V34.1H83A2.5 2.5 0 0 1 85.5 36.6V65.37H14.46V36.6A2.5 2.5 0 0 1 17 34.1M55.57 91.9H44.43V83.41H55.57ZM83 76.41H17A2.5 2.5 0 0 1 14.5 73.91V72.37H85.54V73.91A2.5 2.5 0 0 1 83 76.41" fill="#0085ff" data-fill-palette-color="accent"></path><path d="M40.21 52.07H59.79A3.5 3.5 0 0 0 63.29 48.57V48.24A13.3 13.3 0 0 0 55.88 36.34 8.49 8.49 0 1 0 44.11 36.34 13.3 13.3 0 0 0 36.7 48.24V48.57A3.5 3.5 0 0 0 40.21 52.07M44.57 45.07A6.29 6.29 0 0 1 55.44 45.07ZM50 28.74A1.49 1.49 0 1 1 48.51 30.23 1.49 1.49 0 0 1 50 28.74" fill="#0085ff" data-fill-palette-color="accent"></path><path d="M53.5 15.61V4.6A3.5 3.5 0 1 0 46.5 4.6V15.6A3.5 3.5 0 0 0 53.5 15.6Z" fill="#0085ff" data-fill-palette-color="accent"></path><path d="M63.5 6.6A3.5 3.5 0 1 0 56.5 6.6V13.6A3.5 3.5 0 0 0 63.5 13.6Z" fill="#0085ff" data-fill-palette-color="accent"></path><path d="M40 17.11A3.5 3.5 0 0 0 43.5 13.61V6.61A3.5 3.5 0 1 0 36.5 6.61V13.61A3.5 3.5 0 0 0 40 17.11" fill="#0085ff" data-fill-palette-color="accent"></path></svg></g></svg></g><g></g></svg></g><defs></defs></svg><rect width="395.52" height="196.32964989511657" fill="none" stroke="none" visibility="hidden"></rect></g></svg></g></svg>